<svg t="1697683673834" class="icon" viewBox="0 0 1024 1024" version="1.1" xmlns="http://www.w3.org/2000/svg" p-id="1805" width="32" height="32"><path d="M494.623237 927.487899c-56.402591 0-112.784716-11.237949-166.378331-33.714869C222.240617 849.306282 139.91768 766.243495 96.401584 659.859559c-43.517119-106.362446-42.989093-223.330438 1.457188-329.313238 44.467771-106.003266 127.529535-188.326203 233.913471-231.843322 106.320491-43.49563 223.288482-43.00956 329.313238 1.457188 106.003266 44.467771 188.326203 127.529535 231.843322 233.913471 26.764574 65.423035 37.09485 136.994094 29.848819 206.958562-1.837858 17.829064-17.681708 30.503734-35.616172 28.941146-17.829064-1.859347-30.779004-17.787108-28.941146-35.616172 6.147-59.381435-2.619664-120.136148-25.370831-175.714977C795.924491 268.292466 726.001979 197.756993 635.988896 160.007227c-89.991594-37.728276-189.319833-38.193881-279.649118-1.224898-90.350774 36.926004-160.885224 106.848517-198.636013 196.860577s-38.193881 189.319833-1.224898 279.649118c36.926004 90.350774 106.848517 160.885224 196.860577 198.636013 89.970104 37.728276 189.298344 38.193881 279.649118 1.224898 16.688077-6.823406 35.552727 1.204431 42.334177 17.745153 6.78145 16.604166-1.161453 35.531238-17.745153 42.334177C604.978624 916.736021 549.800931 927.487899 494.623237 927.487899z" fill="#ea9518" p-id="1806"></path><path d="M788.31928 802.282293c-0.422625 0-0.845251 0-1.267876-0.021489-17.892509-0.696872-31.855522-15.758915-31.18014-33.672914l4.098341-107.271142c0.696872-17.892509 16.160051-31.940456 33.672914-31.18014 17.892509 0.696872 31.855522 15.758915 31.18014 33.672914l-4.098341 107.271142C820.048935 788.55157 805.663296 802.282293 788.31928 802.282293z" fill="#ea9518" p-id="1807"></path><path d="M895.590422 806.380634c-0.422625 0-0.845251 0-1.267876-0.021489l-107.271142-4.098341c-17.892509-0.696872-31.855522-15.758915-31.18014-33.672914 0.696872-17.892509 15.82236-31.729655 33.672914-31.18014l107.271142 4.098341c17.892509 0.696872 31.856545 15.758915 31.18014 33.672914C927.320077 792.648888 912.934438 806.380634 895.590422 806.380634z" fill="#ea9518" p-id="1808"></path><path d="M685.336814 505.184781 336.356654 505.184781c-38.510082 0-69.859068-31.348985-69.859068-69.859068l0-56.466036c0-38.510082 31.348985-69.838601 69.859068-69.838601l348.980159 0c38.510082 0 69.859068 31.327496 69.859068 69.838601l0 56.466036C755.195881 473.835795 723.846896 505.184781 685.336814 505.184781zM336.356654 373.916085c-2.746554 0-4.964058 2.218528-4.964058 4.943592l0 56.466036c0 2.746554 2.218528 4.964058 4.964058 4.964058l348.980159 0c2.746554 0 4.964058-2.218528 4.964058-4.964058l0-56.466036c0-2.725064-2.218528-4.943592-4.964058-4.943592L336.356654 373.916085z" fill="#ea9518" p-id="1809"></path><path d="M634.003682 729.317491 387.689786 729.317491c-44.658106 0-80.991616-36.334533-80.991616-80.991616l0-127.043465c0-44.658106 36.334533-80.991616 80.991616-80.991616L634.003682 440.290795c44.658106 0 80.991616 36.334533 80.991616 80.991616l0 127.043465C714.995297 692.982958 678.660764 729.317491 634.003682 729.317491zM387.689786 505.184781c-8.872065 0-16.096607 7.224542-16.096607 16.096607l0 127.043465c0 8.872065 7.224542 16.096607 16.096607 16.096607L634.003682 664.421458c8.872065 0 16.096607-7.224542 16.096607-16.096607l0-127.043465c0-8.872065-7.224542-16.096607-16.096607-16.096607L387.689786 505.184781z" fill="#ea9518" p-id="1810"></path></svg>