<svg t="1697683060903" class="icon" viewBox="0 0 1024 1024" version="1.1" xmlns="http://www.w3.org/2000/svg" p-id="5027" width="32" height="32"><path d="M518.170536 925.455613c-169.099303 0-329.669348-100.617605-397.561621-266.536472C31.089066 439.974593 136.339178 189.042517 355.262236 99.502202 574.059428 9.94142 825.095881 115.211998 914.657686 334.113567c26.680663 65.302285 36.957727 136.648217 29.734208 206.351742-1.853208 17.752316-17.668405 30.387078-35.525098 28.828582-17.752316-1.853208-30.661324-17.752316-28.828582-35.525098 6.149047-59.131749-2.589988-119.696126-25.270547-175.163415C778.725784 172.72283 565.530171 83.371826 379.753023 159.39222c-185.904037 76.020394-275.296997 289.110607-199.255113 475.03511 76.041884 185.882548 289.195541 275.212062 475.014644 199.212134 16.615423-6.801916 35.420721 1.200338 42.201148 17.688871 6.759961 16.551978-1.158383 35.420721-17.688871 42.201148C627.042129 915.200038 572.164265 925.455613 518.170536 925.455613z" fill="#ea9518" p-id="5028"></path><path d="M810.355155 800.8732c-0.421602 0-0.842181 0-1.263783-0.021489-17.836227-0.694825-31.756261-15.709797-31.081902-33.567513l4.085038-106.934474c0.694825-17.836227 16.193821-31.840172 33.567513-31.081902 17.836227 0.694825 31.756261 15.709797 31.081902 33.567513l-4.085038 106.934474C841.98555 787.185456 827.643913 800.8732 810.355155 800.8732z" fill="#ea9518" p-id="5029"></path><path d="M917.311119 804.959262c-0.421602 0-0.842181 0-1.263783-0.021489l-106.955964-4.085038c-17.836227-0.674359-31.756261-15.709797-31.081902-33.567513 0.694825-17.836227 15.857153-31.629371 33.567513-31.081902l106.955964 4.085038c17.836227 0.674359 31.756261 15.709797 31.081902 33.567513C948.94049 791.270495 934.599877 804.959262 917.311119 804.959262z" fill="#ea9518" p-id="5030"></path><path d="M629.716029 620.866477 405.549549 620.866477c-17.857716 0-32.345686-14.487969-32.345686-32.345686 0-17.857716 14.487969-32.345686 32.345686-32.345686L629.716029 556.175105c17.857716 0 32.345686 14.487969 32.345686 32.345686C662.061714 606.378507 647.573745 620.866477 629.716029 620.866477z" fill="#ea9518" p-id="5031"></path><path d="M650.121777 528.820084 385.143801 528.820084c-17.857716 0-32.345686-14.487969-32.345686-32.345686 0-17.857716 14.487969-32.345686 32.345686-32.345686l264.977977 0c17.857716 0 32.345686 14.487969 32.345686 32.345686C682.467463 514.332115 667.979494 528.820084 650.121777 528.820084z" fill="#ea9518" p-id="5032"></path><path d="M517.643534 714.239074c-17.857716 0-32.345686-14.487969-32.345686-32.345686L485.297848 433.403944c0-17.857716 14.487969-32.345686 32.345686-32.345686 17.857716 0 32.345686 14.487969 32.345686 32.345686l0 248.489444C549.989219 699.751105 535.50125 714.239074 517.643534 714.239074z" fill="#ea9518" p-id="5033"></path><path d="M517.643534 470.930629c-8.275477 0-16.551978-3.158946-22.86987-9.475815l-100.216469-100.196003c-12.634762-12.634762-12.634762-33.103956 0-45.738717 12.634762-12.634762 33.103956-12.634762 45.738717 0l100.216469 100.196003c12.634762 12.634762 12.634762 33.103956 0 45.738717C534.195511 467.771683 525.920034 470.930629 517.643534 470.930629z" fill="#ea9518" p-id="5034"></path><path d="M517.370311 470.930629c-8.275477 0-16.551978-3.158946-22.86987-9.475815-12.634762-12.634762-12.634762-33.103956 0-45.738717l105.902982-105.881492c12.634762-12.634762 33.103956-12.634762 45.738717 0 12.634762 12.634762 12.634762 33.103956 0 45.738717l-105.902982 105.881492C533.921265 467.771683 525.645788 470.930629 517.370311 470.930629z" fill="#ea9518" p-id="5035"></path></svg>